<mxfile host="app.diagrams.net" agent="Mozilla/5.0 (Windows NT 10.0; Win64; x64) AppleWebKit/537.36 (KHTML, like Gecko) Chrome/131.0.0.0 Safari/537.36 Edg/131.0.0.0" version="26.0.5">
  <diagram name="Page-1" id="bxix7rV8wMYNbF_hjWCE">
    <mxGraphModel dx="872" dy="481" grid="1" gridSize="10" guides="1" tooltips="1" connect="0" arrows="1" fold="1" page="1" pageScale="1" pageWidth="827" pageHeight="1169" math="0" shadow="0">
      <root>
        <mxCell id="0" />
        <mxCell id="1" parent="0" />
        <mxCell id="D6hsDHqaeu_tajqLw0yo-1" value="Donor/Data-entry/Finance" style="shape=umlActor;verticalLabelPosition=bottom;verticalAlign=top;html=1;fillColor=light-dark(#006b69, #ededed);" vertex="1" parent="1">
          <mxGeometry x="90" y="130" width="30" height="60" as="geometry" />
        </mxCell>
        <mxCell id="D6hsDHqaeu_tajqLw0yo-2" value="ApplicationServer" style="ellipse;whiteSpace=wrap;html=1;fillColor=light-dark(#cc0077, #ededed);" vertex="1" parent="1">
          <mxGeometry x="250" y="130" width="140" height="70" as="geometry" />
        </mxCell>
        <mxCell id="D6hsDHqaeu_tajqLw0yo-4" value="" style="strokeWidth=2;html=1;shape=mxgraph.flowchart.database;whiteSpace=wrap;fillColor=light-dark(#cc0077, #ededed);" vertex="1" parent="1">
          <mxGeometry x="560" y="110" width="60" height="110" as="geometry" />
        </mxCell>
        <mxCell id="D6hsDHqaeu_tajqLw0yo-5" value="Database" style="text;html=1;align=center;verticalAlign=middle;resizable=0;points=[];autosize=1;strokeColor=none;fillColor=none;" vertex="1" parent="1">
          <mxGeometry x="560" y="220" width="70" height="30" as="geometry" />
        </mxCell>
        <mxCell id="D6hsDHqaeu_tajqLw0yo-6" value="&lt;div&gt;&lt;br&gt;&lt;/div&gt;" style="endArrow=block;endFill=1;html=1;edgeStyle=orthogonalEdgeStyle;align=left;verticalAlign=top;rounded=0;" edge="1" parent="1">
          <mxGeometry x="-1" relative="1" as="geometry">
            <mxPoint x="110" y="160" as="sourcePoint" />
            <mxPoint x="250" y="160" as="targetPoint" />
          </mxGeometry>
        </mxCell>
        <mxCell id="D6hsDHqaeu_tajqLw0yo-7" value="1" style="edgeLabel;resizable=0;html=1;align=left;verticalAlign=bottom;" connectable="0" vertex="1" parent="D6hsDHqaeu_tajqLw0yo-6">
          <mxGeometry x="-1" relative="1" as="geometry" />
        </mxCell>
        <mxCell id="D6hsDHqaeu_tajqLw0yo-9" value="&lt;div&gt;&lt;br&gt;&lt;/div&gt;&lt;div&gt;&lt;br&gt;&lt;/div&gt;" style="endArrow=block;endFill=1;html=1;edgeStyle=orthogonalEdgeStyle;align=left;verticalAlign=top;rounded=0;entryX=-0.05;entryY=0.445;entryDx=0;entryDy=0;entryPerimeter=0;" edge="1" parent="1" target="D6hsDHqaeu_tajqLw0yo-4">
          <mxGeometry x="-1" relative="1" as="geometry">
            <mxPoint x="390" y="160" as="sourcePoint" />
            <mxPoint x="550" y="161" as="targetPoint" />
          </mxGeometry>
        </mxCell>
        <mxCell id="D6hsDHqaeu_tajqLw0yo-10" value="1" style="edgeLabel;resizable=0;html=1;align=left;verticalAlign=bottom;" connectable="0" vertex="1" parent="D6hsDHqaeu_tajqLw0yo-9">
          <mxGeometry x="-1" relative="1" as="geometry" />
        </mxCell>
      </root>
    </mxGraphModel>
  </diagram>
</mxfile>
